<svg xmlns="http://www.w3.org/2000/svg" viewBox="0 0 1600 900" fill="none">
  <g stroke="#C9A84C" stroke-linecap="round" stroke-linejoin="round">
    <!-- sweeping jewellery-inspired threads -->
    <path d="M1110 -80C1430 92 1378 272 1604 374" stroke-width="1.25" opacity=".16"/>
    <path d="M1200 -62C1472 108 1424 302 1642 430" stroke-width=".8" opacity=".11"/>
    <path d="M1270 946C1390 744 1466 644 1640 568" stroke-width="1.1" opacity=".16"/>
    <path d="M-90 790C146 710 264 760 404 916" stroke-width="1" opacity=".1"/>

    <!-- upper-right lotus -->
    <g transform="translate(1480 156)" opacity=".22">
      <path d="M0 80C-8 24 8-28 0-92C44-53 54 6 0 80Z"/>
      <path d="M0 80C-45 30-65-18-76-76C-20-55 22-10 0 80Z"/>
      <path d="M0 80C44 30 64-18 76-76C20-55-22-10 0 80Z"/>
      <path d="M-2 82C-67 70-111 36-144-10C-83-17-28 7-2 82Z"/>
      <path d="M2 82C67 70 111 36 144-10C83-17 28 7 2 82Z"/>
      <path d="M-3 84C-78 110-126 104-174 74C-126 32-62 27-3 84Z"/>
      <path d="M3 84C78 110 126 104 174 74C126 32 62 27 3 84Z"/>
      <path d="M-146 77C-93 91-43 98 0 85C43 98 93 91 146 77"/>
      <path d="M0 82V220"/>
      <path d="M0 118C-26 137-42 164-48 198" opacity=".75"/>
      <path d="M0 118C26 137 42 164 48 198" opacity=".75"/>
    </g>

    <!-- lower-right open flower -->
    <g transform="translate(1518 724) rotate(-18)" opacity=".16">
      <path d="M0 0C-18-74 5-131 0-188C47-140 57-79 0 0Z"/>
      <path d="M0 0C-66-44-92-97-108-151C-43-139 5-82 0 0Z"/>
      <path d="M0 0C66-44 92-97 108-151C43-139-5-82 0 0Z"/>
      <path d="M0 0C-79 8-131-17-177-55C-113-77-39-51 0 0Z"/>
      <path d="M0 0C79 8 131-17 177-55C113-77 39-51 0 0Z"/>
      <path d="M0 0V205"/>
      <path d="M0 88C-49 71-83 81-120 112C-69 131-25 124 0 88Z"/>
    </g>

    <!-- faint supporting petals -->
    <g transform="translate(1196 528)" opacity=".09">
      <path d="M0 0C-42-44-44-93-24-139C18-101 27-53 0 0Z"/>
      <path d="M0 0C44-25 82-18 116 11C73 35 29 29 0 0Z"/>
      <path d="M0 0C-54 5-92 28-119 69C-67 78-26 52 0 0Z"/>
    </g>

    <!-- tiny star ornaments -->
    <g fill="#C9A84C" stroke="none">
      <path d="M1360 338C1365 353 1373 361 1388 366C1373 371 1365 379 1360 394C1355 379 1347 371 1332 366C1347 361 1355 353 1360 338Z" opacity=".48"/>
      <path d="M1450 478C1454 489 1460 495 1471 499C1460 503 1454 509 1450 520C1446 509 1440 503 1429 499C1440 495 1446 489 1450 478Z" opacity=".32"/>
      <path d="M312 760C316 771 322 777 333 781C322 785 316 791 312 802C308 791 302 785 291 781C302 777 308 771 312 760Z" opacity=".24"/>
      <circle cx="1268" cy="202" r="4" opacity=".24"/>
      <circle cx="1530" cy="430" r="3" opacity=".28"/>
    </g>
  </g>
</svg>
